# xmcd
#
# Track frame offsets: 
#        182
#        19742
#        40362
#        55605
#        72900
#        91360
#        110525
#        124890
#        144252
#        164625
#        180990
#        203932
#        222375
#
# Disc length: 3259 seconds
#
# Revision: 8
# Processed by: cddbd v1.5.2PL0 Copyright (c) Steve Scherf et al.
# Submitted via: ExactAudioCopy v0.99pb5
#
DISCID=bb0cb90d
DTITLE=Patricia Kaas - Dans Ma Chair
DYEAR=1997
DGENRE=Chanson
TTITLE0=Quand j'ai peur de tout
TTITLE1=Dans ma chair
TTITLE2=Chanson simple (Simple song de Lyle Lovett)
TTITLE3=J'ai tout quitté pour toi
TTITLE4=Je me souviens de rien (When the night rolls in de Brenda Russ
TTITLE4=ell)
TTITLE5=Les lignes de nos mains
TTITLE6=Je sais
TTITLE7=Je voudrais la connaître
TTITLE8=Fais-moi l'amitié
TTITLE9=L'amour devant la mer
TTITLE10=Je compte jusqu'à toi
TTITLE11=Sans toi
TTITLE12=Don't let me be lonely tonight (en duo avec James Taylor)
EXTD=YEAR: 1997
EXTT0=
EXTT1=
EXTT2=
EXTT3=
EXTT4=
EXTT5=
EXTT6=
EXTT7=
EXTT8=
EXTT9=
EXTT10=
EXTT11=
EXTT12=
PLAYORDER=
